<svg xmlns="http://www.w3.org/2000/svg" viewBox="0 0 24 24" fill="none">
  <defs>
    <linearGradient id="ai-sparkle-gradient" x1="0%" y1="0%" x2="100%" y2="100%">
      <stop offset="0%" stop-color="#8B5CF6" />
      <stop offset="50%" stop-color="#3B82F6" />
      <stop offset="100%" stop-color="#06B6D4" />
    </linearGradient>
  </defs>
  <!-- Main large sparkle -->
  <path d="M12 2C12 7.5 16.5 12 22 12C16.5 12 12 16.5 12 22C12 16.5 7.5 12 2 12C7.5 12 12 7.5 12 2Z" fill="url(#ai-sparkle-gradient)" />
  <!-- Small sparkle 1 -->
  <path d="M19 3C19 4.38 20.12 5.5 21.5 5.5C20.12 5.5 19 6.62 19 8C19 6.62 17.88 5.5 16.5 5.5C17.88 5.5 19 4.38 19 3Z" fill="url(#ai-sparkle-gradient)" opacity="0.8" />
  <!-- Small sparkle 2 -->
  <path d="M6 16C6 17.1 6.9 18 8 18C6.9 18 6 18.9 6 20C6 18.9 5.1 18 4 18C5.1 18 6 17.1 6 16Z" fill="url(#ai-sparkle-gradient)" opacity="0.7" />
</svg>
